<svg width="450.9" height="131.501" viewBox="0 0 450.9 131.501" xmlns="http://www.w3.org/2000/svg"><g id="svgGroup" stroke-linecap="round" fill-rule="evenodd" font-size="9pt" stroke="#0ca4a5" stroke-width="0.25mm" fill="#0ca4a5" style="stroke:#0ca4a5;stroke-width:0.25mm;fill:rgba(12, 164, 165, 0.2)"><path d="M 304.887 83.553 A 8.258 8.258 0 0 0 311.3 86.501 A 8.146 8.146 0 0 0 312.796 86.363 Q 314.613 86.024 316.315 84.853 A 13.966 13.966 0 0 0 318.6 82.851 A 16.276 16.276 0 0 0 320.292 80.681 Q 321.44 78.931 322.33 76.703 A 33.504 33.504 0 0 0 323.7 72.401 A 33.051 33.051 0 0 0 323.872 75.877 Q 324.08 77.837 324.538 79.462 A 13.395 13.395 0 0 0 325.95 82.801 A 7.25 7.25 0 0 0 330.125 86.102 A 9.788 9.788 0 0 0 333 86.501 Q 339.3 86.501 344.25 83.101 A 39.649 39.649 0 0 0 348.165 80.025 A 47.961 47.961 0 0 0 348.306 79.897 A 16.809 16.809 0 0 0 349.05 82.501 A 8.457 8.457 0 0 0 349.791 83.989 Q 350.619 85.29 351.826 85.917 A 5.504 5.504 0 0 0 354.4 86.501 A 10.201 10.201 0 0 0 355.387 86.455 Q 357.742 86.226 358.95 84.851 A 5.867 5.867 0 0 0 359.601 83.927 Q 360.654 82.116 361.5 78.501 Q 363 72.401 365.45 66.901 Q 366.981 63.463 368.474 60.866 A 37.022 37.022 0 0 1 370.25 58.051 A 26.699 26.699 0 0 1 370.844 57.235 Q 372.769 54.701 373.9 54.701 A 1.452 1.452 0 0 1 373.96 54.702 Q 374.791 54.736 374.958 55.737 A 3.445 3.445 0 0 1 375 56.301 A 10.115 10.115 0 0 1 374.996 56.579 Q 374.945 58.437 374.238 62.262 A 135.129 135.129 0 0 1 373.7 65.001 A 187.798 187.798 0 0 0 373.502 66.032 Q 372.614 70.74 372.382 73.386 A 18.845 18.845 0 0 0 372.3 75.001 A 21.172 21.172 0 0 0 372.388 76.972 Q 372.551 78.707 373.012 80.137 A 9.508 9.508 0 0 0 374.9 83.551 Q 376.667 85.556 379.589 86.198 A 14.03 14.03 0 0 0 382.6 86.501 Q 388.9 86.501 393.85 83.101 A 39.649 39.649 0 0 0 397.765 80.025 A 47.961 47.961 0 0 0 397.878 79.923 A 15.699 15.699 0 0 0 399.3 82.001 A 11.86 11.86 0 0 0 404.494 85.729 A 13.778 13.778 0 0 0 409.2 86.501 Q 411.9 86.501 414.65 85.051 Q 417.4 83.601 419.1 80.901 L 418.5 84.801 Q 407.431 93.354 401.425 99.97 A 46.804 46.804 0 0 0 397.5 104.851 A 43.813 43.813 0 0 0 395.751 107.604 Q 394.068 110.493 393.12 113.243 A 21.012 21.012 0 0 0 391.9 120.101 A 14.662 14.662 0 0 0 392.013 121.945 A 10.575 10.575 0 0 0 395.1 128.351 A 10.533 10.533 0 0 0 399.57 130.981 A 13.461 13.461 0 0 0 403.4 131.501 A 13.857 13.857 0 0 0 410.936 129.319 Q 413.46 127.727 415.656 124.973 A 32.613 32.613 0 0 0 419.05 119.651 A 75.028 75.028 0 0 0 423.029 110.378 Q 426.517 100.629 429 87.101 L 435.4 82.801 Q 439.4 80.001 448 74.201 Q 449.5 73.201 450.2 71.901 A 4.943 4.943 0 0 0 450.604 70.871 Q 450.9 69.798 450.9 68.301 Q 450.9 66.401 450.15 65.151 A 3.273 3.273 0 0 0 449.836 64.71 A 2.186 2.186 0 0 0 448.1 63.901 Q 447.413 63.901 446.583 64.279 A 7.207 7.207 0 0 0 445.8 64.701 Q 438.7 69.301 431 75.301 Q 431.5 72.101 431.95 69.251 Q 432.4 66.401 432.8 64.001 Q 434.9 51.401 435.3 48.301 A 6.337 6.337 0 0 0 435.314 48.197 Q 435.4 47.514 435.4 46.401 A 8.802 8.802 0 0 0 435.398 46.198 Q 435.351 44.166 434.35 43.451 Q 433.3 42.701 430.8 42.701 A 30.328 30.328 0 0 0 430.389 42.703 Q 428.142 42.734 426.4 43.101 A 16.337 16.337 0 0 0 426.233 42.429 Q 425.78 40.764 425.15 40.051 A 1.767 1.767 0 0 0 424.769 39.73 Q 423.936 39.201 422.2 39.201 A 21.082 21.082 0 0 0 415.999 40.125 A 24.014 24.014 0 0 0 409.15 43.551 Q 403 47.901 399.3 55.051 A 32.51 32.51 0 0 0 395.604 69.576 A 69.506 69.506 0 0 1 393.843 71.431 A 37.373 37.373 0 0 1 392.15 73.051 A 18.563 18.563 0 0 1 391.585 73.535 Q 390.11 74.746 388.864 75.211 A 4.196 4.196 0 0 1 387.4 75.501 A 4.066 4.066 0 0 1 387.271 75.499 Q 385.065 75.429 384.615 72.936 A 8.127 8.127 0 0 1 384.5 71.501 A 12.459 12.459 0 0 1 384.537 70.6 Q 384.708 68.274 385.66 63.525 A 209.257 209.257 0 0 1 386.4 60.001 Q 388.067 52.271 388.471 48.159 A 23.598 23.598 0 0 0 388.6 45.901 A 9.576 9.576 0 0 0 388.323 43.494 Q 387.557 40.549 384.672 39.723 A 9.357 9.357 0 0 0 382.1 39.401 A 10.337 10.337 0 0 0 380.366 39.552 Q 377.788 39.99 374.85 41.701 A 18.98 18.98 0 0 0 372.529 43.31 Q 369.702 45.579 366.8 49.401 A 39.284 39.284 0 0 0 365.152 51.75 Q 362.023 56.564 359.4 63.401 A 103.09 103.09 0 0 1 359.67 60.787 Q 359.988 58.063 360.4 56.001 A 111.739 111.739 0 0 1 360.814 54.028 Q 361.313 51.751 362 49.001 A 131.293 131.293 0 0 0 362.505 47.062 Q 363.233 44.166 363.428 42.692 A 7.037 7.037 0 0 0 363.5 41.801 Q 363.5 41.139 363.321 40.678 A 1.541 1.541 0 0 0 362.7 39.901 A 2.213 2.213 0 0 0 362.284 39.703 Q 361.454 39.401 359.9 39.401 A 17.019 17.019 0 0 0 358.089 39.492 Q 356.997 39.609 356.088 39.877 A 7.202 7.202 0 0 0 354.15 40.751 A 6.654 6.654 0 0 0 352.037 43.044 A 9.683 9.683 0 0 0 351.2 45.001 A 76.942 76.942 0 0 0 350.645 46.837 A 81.944 81.944 0 0 0 347.512 67.893 A 116.605 116.605 0 0 1 346.141 69.427 Q 344.065 71.701 342.55 73.051 A 18.563 18.563 0 0 1 341.985 73.535 Q 340.51 74.746 339.264 75.211 A 4.196 4.196 0 0 1 337.8 75.501 A 3.186 3.186 0 0 1 337.755 75.5 Q 336.486 75.482 335.7 74.451 A 3.349 3.349 0 0 1 335.268 73.686 Q 334.9 72.788 334.9 71.501 Q 334.9 69.063 336.749 60.156 A 426.31 426.31 0 0 1 337.7 55.701 A 447.762 447.762 0 0 0 338.011 54.297 Q 340.2 44.34 340.2 42.001 A 4.334 4.334 0 0 0 340.18 41.571 Q 340.141 41.181 340.028 40.87 A 1.727 1.727 0 0 0 339.3 39.951 A 2.52 2.52 0 0 0 338.809 39.726 Q 337.868 39.401 336.1 39.401 Q 334.128 39.401 332.745 39.865 A 5.254 5.254 0 0 0 331.15 40.701 A 5.37 5.37 0 0 0 330.145 41.755 Q 329.661 42.417 329.283 43.292 A 12.336 12.336 0 0 0 328.7 45.001 A 175.362 175.362 0 0 1 327.567 49.019 Q 325.702 55.33 323.75 60.001 A 89.066 89.066 0 0 1 323.26 61.151 Q 321.77 64.578 320.386 66.923 A 23.883 23.883 0 0 1 318.95 69.101 A 22.589 22.589 0 0 1 318.806 69.29 Q 316.652 72.101 315.2 72.101 A 2.428 2.428 0 0 1 314.778 72.066 A 1.635 1.635 0 0 1 313.6 71.251 A 2.43 2.43 0 0 1 313.402 70.809 Q 313.1 69.932 313.1 68.301 Q 313.1 64.801 315.1 54.301 A 74.279 74.279 0 0 1 315.139 54.107 Q 315.435 52.645 315.825 51.021 A 124.01 124.01 0 0 1 316.7 47.601 A 198.933 198.933 0 0 0 316.997 46.34 Q 317.624 43.643 317.761 42.634 A 3.471 3.471 0 0 0 317.8 42.201 A 4.518 4.518 0 0 0 317.799 42.124 Q 317.777 40.781 316.95 40.101 A 2.096 2.096 0 0 0 316.539 39.84 Q 315.643 39.401 313.9 39.401 Q 311.341 39.401 309.686 39.961 A 5.57 5.57 0 0 0 308.2 40.701 A 5.856 5.856 0 0 0 307.211 41.612 Q 306.106 42.882 305.4 45.001 A 98.87 98.87 0 0 0 303.746 50.564 A 78.663 78.663 0 0 0 302.1 58.251 A 75.931 75.931 0 0 0 301.399 64.171 A 98.01 98.01 0 0 0 301.1 72.001 A 22.346 22.346 0 0 0 301.553 76.616 A 15.755 15.755 0 0 0 303.95 82.351 A 12.208 12.208 0 0 0 304.887 83.553 Z M 125.91 67.634 A 42.89 42.89 0 0 0 129.23 67.094 A 81.944 81.944 0 0 0 129.2 69.701 A 85.718 85.718 0 0 0 129.252 72.753 Q 129.403 77.002 130.001 79.871 A 16.809 16.809 0 0 0 130.75 82.501 A 8.457 8.457 0 0 0 131.491 83.989 Q 132.319 85.29 133.526 85.917 A 5.504 5.504 0 0 0 136.1 86.501 A 10.201 10.201 0 0 0 137.087 86.455 Q 139.442 86.226 140.65 84.851 A 5.867 5.867 0 0 0 141.301 83.927 Q 142.354 82.116 143.2 78.501 A 80.755 80.755 0 0 1 143.717 76.469 A 90.455 90.455 0 0 1 146.65 67.501 A 75.388 75.388 0 0 1 147.666 64.986 Q 148.52 62.981 149.396 61.282 A 37.32 37.32 0 0 1 151.1 58.301 A 26.134 26.134 0 0 1 151.466 57.744 Q 152.897 55.625 154 54.981 A 1.804 1.804 0 0 1 154.9 54.701 A 1.452 1.452 0 0 1 154.96 54.702 Q 155.791 54.736 155.958 55.737 A 3.445 3.445 0 0 1 156 56.301 A 15.446 15.446 0 0 1 155.984 56.963 Q 155.911 58.641 155.512 62.111 A 264.391 264.391 0 0 1 155.2 64.701 A 178.447 178.447 0 0 0 154.892 67.03 Q 154.434 70.677 154.279 73.294 A 41.155 41.155 0 0 0 154.2 75.701 Q 154.2 77.81 154.563 79.623 A 13.837 13.837 0 0 0 155.85 83.351 A 7.682 7.682 0 0 0 156.358 84.19 Q 157.17 85.352 158.289 85.93 A 5.393 5.393 0 0 0 160.8 86.501 Q 162.475 86.501 163.671 86.062 A 4.39 4.39 0 0 0 165.45 84.901 A 5.638 5.638 0 0 0 166.16 83.888 Q 166.84 82.686 167.433 80.685 A 36.157 36.157 0 0 0 168 78.501 Q 169.5 72.401 171.9 66.901 Q 174.3 61.401 176.7 58.051 A 27.276 27.276 0 0 1 177.307 57.235 Q 179.269 54.701 180.4 54.701 A 1.452 1.452 0 0 1 180.46 54.702 Q 181.291 54.736 181.458 55.737 A 3.445 3.445 0 0 1 181.5 56.301 A 10.115 10.115 0 0 1 181.496 56.579 Q 181.445 58.437 180.738 62.262 A 135.129 135.129 0 0 1 180.2 65.001 A 187.798 187.798 0 0 0 180.002 66.032 Q 179.114 70.74 178.882 73.386 A 18.845 18.845 0 0 0 178.8 75.001 A 21.172 21.172 0 0 0 178.888 76.972 Q 179.051 78.707 179.512 80.137 A 9.508 9.508 0 0 0 181.4 83.551 Q 183.167 85.556 186.089 86.198 A 14.03 14.03 0 0 0 189.1 86.501 Q 195.4 86.501 200.35 83.101 Q 205.3 79.701 209.6 74.401 A 6.749 6.749 0 0 0 210.503 73.051 Q 211.5 71.098 211.5 68.201 Q 211.5 66.97 211.243 66.049 A 4.376 4.376 0 0 0 210.75 64.901 A 3.165 3.165 0 0 0 210.45 64.493 A 2.225 2.225 0 0 0 208.7 63.701 A 3.137 3.137 0 0 0 206.84 64.318 A 4.764 4.764 0 0 0 206 65.101 Q 201.4 70.601 198.65 73.051 A 18.563 18.563 0 0 1 198.085 73.535 Q 196.61 74.746 195.364 75.211 A 4.196 4.196 0 0 1 193.9 75.501 A 4.066 4.066 0 0 1 193.771 75.499 Q 191.565 75.429 191.115 72.936 A 8.127 8.127 0 0 1 191 71.501 A 12.459 12.459 0 0 1 191.037 70.6 Q 191.208 68.274 192.16 63.525 A 209.257 209.257 0 0 1 192.9 60.001 Q 194.567 52.271 194.971 48.159 A 23.598 23.598 0 0 0 195.1 45.901 A 9.576 9.576 0 0 0 194.823 43.494 Q 194.057 40.549 191.172 39.723 A 9.357 9.357 0 0 0 188.6 39.401 A 11.699 11.699 0 0 0 184.342 40.253 Q 182.542 40.954 180.66 42.231 A 30.349 30.349 0 0 0 177.2 45.001 A 24.279 24.279 0 0 0 177.131 45.065 Q 172.976 48.909 169.333 55.867 A 80.726 80.726 0 0 0 166.1 62.901 A 123.014 123.014 0 0 1 166.101 62.897 Q 166.326 61.547 166.831 59.188 A 228.8 228.8 0 0 1 167.2 57.501 Q 168.64 51.135 168.989 47.756 A 18.458 18.458 0 0 0 169.1 45.901 A 12.369 12.369 0 0 0 169.01 44.36 Q 168.894 43.437 168.628 42.69 A 4.939 4.939 0 0 0 167.65 41.001 A 3.615 3.615 0 0 0 167.549 40.894 Q 166.081 39.401 162.7 39.401 A 9.832 9.832 0 0 0 160.95 39.561 Q 158.228 40.053 155.25 42.051 A 20.976 20.976 0 0 0 153.41 43.444 Q 150.421 45.966 147.55 50.101 A 39.608 39.608 0 0 0 147.028 50.872 Q 143.61 56.049 141.1 63.301 Q 141.5 58.901 142.1 55.951 A 117.266 117.266 0 0 1 142.514 54.004 Q 142.741 52.98 143.006 51.853 A 217.888 217.888 0 0 1 143.7 49.001 A 131.293 131.293 0 0 0 144.205 47.062 Q 144.933 44.166 145.128 42.692 A 7.037 7.037 0 0 0 145.2 41.801 Q 145.2 41.139 145.021 40.678 A 1.541 1.541 0 0 0 144.4 39.901 A 2.213 2.213 0 0 0 143.984 39.703 Q 143.154 39.401 141.6 39.401 A 17.019 17.019 0 0 0 139.789 39.492 Q 138.697 39.609 137.788 39.877 A 7.202 7.202 0 0 0 135.85 40.751 A 6.654 6.654 0 0 0 133.737 43.044 A 9.683 9.683 0 0 0 132.9 45.001 A 76.942 76.942 0 0 0 132.345 46.837 A 81.944 81.944 0 0 0 130.242 56.29 A 65.425 65.425 0 0 1 126.078 57.079 A 43.088 43.088 0 0 1 122.3 57.501 A 27.657 27.657 0 0 0 121.953 55.14 A 21.86 21.86 0 0 0 116.85 44.551 A 14.981 14.981 0 0 0 110.438 40.218 A 17.814 17.814 0 0 0 104.6 39.301 Q 98.4 39.301 93.3 42.651 A 21.614 21.614 0 0 0 89.651 45.665 A 24.072 24.072 0 0 0 85.3 51.951 A 27.572 27.572 0 0 0 83.207 57.944 A 34.036 34.036 0 0 0 82.4 65.501 A 28.272 28.272 0 0 0 82.403 65.937 A 24.553 24.553 0 0 0 84.6 75.901 Q 86.8 80.701 91.05 83.601 A 16.069 16.069 0 0 0 96.222 85.905 A 20.705 20.705 0 0 0 101.3 86.501 A 18.053 18.053 0 0 0 107.851 85.306 A 19.822 19.822 0 0 0 114 81.451 A 22.918 22.918 0 0 0 118.906 75.14 A 28.513 28.513 0 0 0 121.5 68.001 A 52.306 52.306 0 0 0 125.91 67.634 Z M 20.533 86.281 A 80.403 80.403 0 0 0 26.3 86.501 A 69.269 69.269 0 0 0 38.603 85.458 A 50.469 50.469 0 0 0 53.7 80.301 Q 65.2 74.101 71.2 62.851 A 49.177 49.177 0 0 0 75.882 49.811 A 64.237 64.237 0 0 0 77.2 36.501 A 47.266 47.266 0 0 0 76.408 27.637 A 34.125 34.125 0 0 0 72.4 16.701 Q 67.6 8.501 58.7 4.251 A 37.121 37.121 0 0 0 58.386 4.103 Q 49.586 0.001 37.6 0.001 A 63.482 63.482 0 0 0 31.052 0.345 A 74.873 74.873 0 0 0 19.7 2.451 A 60.609 60.609 0 0 0 13.586 4.402 A 48.405 48.405 0 0 0 3.5 9.601 Q 2.52 10.271 1.833 11.008 A 6.479 6.479 0 0 0 0.8 12.451 Q 0.294 13.432 0.108 14.753 A 11.847 11.847 0 0 0 0 16.401 A 7.581 7.581 0 0 0 0.118 17.768 A 5.558 5.558 0 0 0 1 19.951 A 4.25 4.25 0 0 0 1.13 20.129 Q 1.594 20.732 2.196 21.049 A 3.178 3.178 0 0 0 3.7 21.401 A 4.761 4.761 0 0 0 4.674 21.301 A 4.973 4.973 0 0 0 6.5 20.501 A 53.079 53.079 0 0 1 10.166 18.321 A 60.449 60.449 0 0 1 20.65 13.901 Q 28.5 11.401 36.5 11.401 A 44.559 44.559 0 0 1 38.66 11.452 Q 42.809 11.653 46.278 12.645 A 22.204 22.204 0 0 1 55.7 17.901 Q 60.189 22.192 61.715 28.836 A 33.348 33.348 0 0 1 62.5 36.301 A 69.53 69.53 0 0 1 62.46 38.687 Q 61.909 54.725 53.85 64.601 A 26.451 26.451 0 0 1 49.44 68.888 Q 41.205 75.201 27.7 75.201 Q 25.681 75.201 23.888 75.116 A 57.223 57.223 0 0 1 20.9 74.901 A 231.397 231.397 0 0 1 21.936 65.575 A 273.753 273.753 0 0 1 24.6 49.251 A 353.503 353.503 0 0 1 24.831 48.069 Q 27.315 35.446 29.8 27.801 Q 30.138 26.788 30.285 25.902 A 7.933 7.933 0 0 0 30.4 24.601 Q 30.4 21.201 24.3 21.201 A 20.212 20.212 0 0 0 22.792 21.255 Q 20.413 21.433 18.8 22.201 A 4.897 4.897 0 0 0 16.761 23.976 A 6.199 6.199 0 0 0 16 25.701 A 292.923 292.923 0 0 0 15.885 26.123 A 317.568 317.568 0 0 0 9.7 53.751 Q 7.1 68.301 6.4 78.201 A 15.971 15.971 0 0 0 6.39 78.411 Q 6.302 80.481 6.795 81.867 A 4.328 4.328 0 0 0 7.7 83.401 Q 9.2 85.001 13.2 85.501 A 134.944 134.944 0 0 0 14.163 85.629 Q 17.51 86.063 20.533 86.281 Z M 311.3 14.601 L 307.8 14.301 Q 301.9 13.801 296.05 13.501 A 231.678 231.678 0 0 0 286.966 13.219 A 264.372 264.372 0 0 0 283.8 13.201 L 279.3 13.201 Q 278.1 28.001 276.8 40.201 L 294 39.901 A 16.56 16.56 0 0 1 295.6 39.972 Q 297.239 40.132 298.205 40.649 A 2.968 2.968 0 0 1 298.95 41.201 A 4.358 4.358 0 0 1 300.066 43.354 A 6.393 6.393 0 0 1 300.2 44.701 A 9.304 9.304 0 0 1 299.942 46.957 A 6.381 6.381 0 0 1 298.2 50.051 Q 296.392 51.814 293.193 51.983 A 13.149 13.149 0 0 1 292.5 52.001 L 275.4 52.001 L 274.8 56.301 A 74.453 74.453 0 0 1 273.243 64.83 Q 271.054 73.64 266.937 78.594 A 20.008 20.008 0 0 1 265.85 79.801 A 22.602 22.602 0 0 1 254.321 86.047 A 33.643 33.643 0 0 1 247 86.801 A 27.278 27.278 0 0 1 237.047 85 A 25.982 25.982 0 0 1 234.5 83.851 A 27.47 27.47 0 0 1 230.505 81.355 Q 228.306 79.686 226.814 77.721 A 15.96 15.96 0 0 1 226.1 76.701 A 6.75 6.75 0 0 1 225.13 74.168 A 9.08 9.08 0 0 1 225 72.601 Q 225 70.201 226.15 68.401 Q 227.3 66.601 229 66.601 A 3.787 3.787 0 0 1 230.661 66.995 A 5.051 5.051 0 0 1 231.35 67.401 Q 232.5 68.201 234.3 70.501 A 17.765 17.765 0 0 0 238.047 74.215 A 13.645 13.645 0 0 0 246.2 76.801 A 11.739 11.739 0 0 0 255.012 72.982 A 15.722 15.722 0 0 0 255.75 72.151 A 16.795 16.795 0 0 0 258.162 68.118 Q 259.995 63.907 260.7 57.501 L 261.3 52.001 L 256.5 52.001 Q 254.2 52.001 252.55 50.701 Q 250.9 49.401 250.9 47.001 A 9.609 9.609 0 0 1 251.068 45.143 Q 251.281 44.067 251.761 43.234 A 4.968 4.968 0 0 1 252.5 42.251 A 5.092 5.092 0 0 1 254.699 40.939 Q 255.517 40.687 256.507 40.622 A 10.719 10.719 0 0 1 257.2 40.601 Q 260 40.601 262.7 40.501 Q 263.525 32.938 264.445 23.154 A 1972.073 1972.073 0 0 0 265.3 13.801 A 90.259 90.259 0 0 0 260.3 14.394 Q 253.4 15.426 250.1 17.301 Q 245.933 19.668 245.712 24.189 A 10.506 10.506 0 0 0 245.7 24.701 A 11.586 11.586 0 0 0 247.231 30.421 A 14.176 14.176 0 0 0 247.7 31.201 A 3.904 3.904 0 0 1 248.1 31.96 A 2.876 2.876 0 0 1 248.3 33.001 Q 248.3 34.625 246.672 35.883 A 7.169 7.169 0 0 1 246.3 36.151 Q 244.3 37.501 241.8 37.501 A 7.579 7.579 0 0 1 239.336 37.113 A 6.605 6.605 0 0 1 237.2 35.901 A 4.176 4.176 0 0 1 236.515 35.147 Q 235.91 34.317 235.332 32.927 A 22.751 22.751 0 0 1 234.9 31.801 Q 233.8 28.701 233.8 24.901 A 18.556 18.556 0 0 1 235.986 15.798 Q 238.107 11.948 242.285 9.195 A 28.753 28.753 0 0 1 246.55 6.901 Q 259.3 1.301 283.8 1.301 Q 299.007 1.301 311.013 2.741 A 154.473 154.473 0 0 1 313.8 3.101 A 11.083 11.083 0 0 1 315.201 3.387 Q 316.887 3.856 317.65 4.801 Q 318.672 6.066 318.699 8.088 A 8.269 8.269 0 0 1 318.7 8.201 A 9.223 9.223 0 0 1 318.373 10.776 Q 317.144 14.995 311.3 14.601 Z M 420.2 65.601 L 423.4 48.501 A 11.292 11.292 0 0 0 417.261 50.524 A 14.986 14.986 0 0 0 415.8 51.651 A 19.815 19.815 0 0 0 411.814 56.485 A 25.642 25.642 0 0 0 410.2 59.701 Q 408.1 64.701 408.1 70.301 A 12.33 12.33 0 0 0 408.199 71.918 Q 408.449 73.806 409.334 74.882 A 3.841 3.841 0 0 0 409.35 74.901 A 4.086 4.086 0 0 0 412.136 76.364 A 5.852 5.852 0 0 0 412.8 76.401 A 4.113 4.113 0 0 0 414.979 75.745 Q 415.637 75.341 416.276 74.687 A 10.912 10.912 0 0 0 417.2 73.601 Q 418.74 71.547 419.635 68.203 A 29.644 29.644 0 0 0 420.2 65.601 Z M 104.7 49.901 L 104.2 49.901 A 7.373 7.373 0 0 0 98.682 52.345 A 11.395 11.395 0 0 0 97.55 53.751 A 13.286 13.286 0 0 0 95.81 57.479 Q 94.9 60.499 94.9 64.601 A 22.559 22.559 0 0 0 95.105 67.748 Q 95.564 70.996 97.05 73.001 A 8.845 8.845 0 0 0 98.467 74.53 A 5.53 5.53 0 0 0 102.1 75.901 A 7.088 7.088 0 0 0 107.126 73.838 A 9.727 9.727 0 0 0 107.65 73.301 A 10.806 10.806 0 0 0 109.436 70.529 Q 110.011 69.272 110.4 67.74 A 22.846 22.846 0 0 0 110.8 65.801 Q 107.7 63.701 106.05 60.301 Q 104.4 56.901 104.4 53.101 Q 104.4 51.501 104.7 49.901 Z M 404.5 121.801 A 2.805 2.805 0 0 0 406.042 121.272 Q 407.754 120.139 409.73 116.58 A 38.125 38.125 0 0 0 410.15 115.801 Q 413.3 109.801 416.2 96.701 Q 408.585 103.228 405.176 108.483 A 27.437 27.437 0 0 0 405.1 108.601 Q 402.949 111.954 402.159 114.787 A 11.603 11.603 0 0 0 401.7 117.901 Q 401.7 119.601 402.35 120.701 Q 403 121.801 404.5 121.801 Z" vector-effect="non-scaling-stroke"/></g></svg>